<?xml version="1.0" encoding="UTF-8" standalone="no"?>
<!DOCTYPE svg PUBLIC "-//W3C//DTD SVG 1.1//EN" "http://www.w3.org/Graphics/SVG/1.1/DTD/svg11.dtd">
<svg width="100%" height="100%" viewBox="0 0 270 210" version="1.1" xmlns="http://www.w3.org/2000/svg" xmlns:xlink="http://www.w3.org/1999/xlink" xml:space="preserve" xmlns:serif="http://www.serif.com/" style="fill-rule:evenodd;clip-rule:evenodd;stroke-linecap:round;stroke-linejoin:round;stroke-miterlimit:1.5;">
    <rect id="XM3A" x="0" y="0" width="270" height="210" style="fill:none;"/>
    <path id="LEG" d="M30,1L1,209" style="fill:none;stroke:#000;stroke-width:1px;"/>
    <path id="LEG1" serif:id="LEG" d="M240,1L269,209" style="fill:none;stroke:#000;stroke-width:1px;"/>
    <path id="BR1" d="M30,1L269,209" style="fill:none;stroke:#000;stroke-width:1px;"/>
    <path id="BR11" serif:id="BR1" d="M1,209L240,1" style="fill:none;stroke:#000;stroke-width:1px;"/>
    <path id="R3" d="M135,92.5L15.5,105" style="fill:none;stroke:#000;stroke-width:1px;"/>
    <path id="R31" serif:id="R3" d="M254.5,105L135,92.5" style="fill:none;stroke:#000;stroke-width:1px;"/>
    <path id="R2" d="M82.578,46.758L15.5,105" style="fill:none;stroke:#000;stroke-width:1px;"/>
    <path id="R4" d="M68,150.433L15.5,105" style="fill:none;stroke:#000;stroke-width:1px;"/>
    <path id="R41" serif:id="R4" d="M254.5,105L200.608,149.479" style="fill:none;stroke:#000;stroke-width:1px;"/>
    <path id="R21" serif:id="R2" d="M187.422,46.758L254.5,105" style="fill:none;stroke:#000;stroke-width:1px;"/>
    <path id="R1" d="M22.75,53L82.578,46.758" style="fill:none;stroke:#000;stroke-width:1px;"/>
    <path id="R5" d="M9,153L68,150.69" style="fill:none;stroke:#000;stroke-width:1px;"/>
    <path id="R51" serif:id="R5" d="M200.608,149.479L261.192,153" style="fill:none;stroke:#000;stroke-width:1px;"/>
    <path id="R11" serif:id="R1" d="M188,46.758L247.25,53" style="fill:none;stroke:#000;stroke-width:1px;"/>
</svg>
